<svg width="37" height="34" viewBox="0 0 37 34" fill="none" xmlns="http://www.w3.org/2000/svg">
<path d="M31.2516 14.8345L29.0436 12.9453L20.5759 5.72104C19.9687 5.21041 19.1826 4.9281 18.3679 4.9281C17.5533 4.9281 16.7672 5.21041 16.1599 5.72104L7.71435 12.9869L5.50635 14.876C5.35767 15.0178 5.25553 15.1969 5.21211 15.3918C5.16868 15.5867 5.18582 15.7893 5.26147 15.9753C5.33711 16.1613 5.46808 16.3229 5.63874 16.4409C5.8094 16.5588 6.01255 16.6281 6.22395 16.6405C6.50358 16.6287 6.76797 16.5174 6.96363 16.3291L7.32795 16.0177V26.7089C7.32795 27.5348 7.67689 28.3268 8.29801 28.9108C8.91913 29.4947 9.76155 29.8228 10.6399 29.8228H26.0959C26.9743 29.8228 27.8168 29.4947 28.4379 28.9108C29.059 28.3268 29.4079 27.5348 29.4079 26.7089V16.0593L29.7723 16.3707C29.9747 16.5437 30.2383 16.6399 30.5119 16.6405C30.7345 16.64 30.9518 16.5762 31.1351 16.4575C31.3184 16.3389 31.4593 16.1708 31.5393 15.9755C31.6193 15.7802 31.6346 15.5668 31.5833 15.3631C31.532 15.1595 31.4163 14.9752 31.2516 14.8345Z" fill="#FF0606"/>
</svg>
