<svg width="32" height="33" viewBox="0 0 32 33" fill="none" xmlns="http://www.w3.org/2000/svg">
<path d="M26 22C25.8608 22.7171 25.472 23.3616 24.9026 23.8193C24.3333 24.277 23.6203 24.5181 22.89 24.5H9.11001C8.37977 24.5181 7.66671 24.277 7.09738 23.8193C6.52805 23.3616 6.13927 22.7171 6.00001 22C5.89663 21.385 5.98746 20.7531 6.25988 20.1921C6.5323 19.6312 6.97276 19.169 7.52001 18.87C7.66786 18.7883 7.79065 18.6679 7.87522 18.5216C7.95979 18.3754 8.00293 18.2089 8.00001 18.04V14.5C7.99726 12.9041 8.4719 11.3438 9.3629 10.0198C10.2539 8.69575 11.5206 7.66847 13 7.07C13.004 6.27435 13.3239 5.51287 13.8893 4.95307C14.4547 4.39328 15.2194 4.08102 16.015 4.085C16.8107 4.08898 17.5721 4.40886 18.1319 4.97428C18.6917 5.53971 19.004 6.30435 19 7.1C20.4923 7.75496 21.7605 8.83179 22.6489 10.198C23.5372 11.5643 24.0068 13.1604 24 14.79V18.04C23.9931 18.2049 24.0302 18.3688 24.1075 18.5146C24.1848 18.6605 24.2996 18.7832 24.44 18.87C24.9946 19.1631 25.4434 19.6227 25.7233 20.1842C26.0031 20.7456 26.0999 21.3807 26 22V22Z" fill="#FF0000"/>
<path d="M16 28.5C16.6981 28.4958 17.3829 28.309 17.9863 27.9581C18.5898 27.6072 19.091 27.1046 19.44 26.5H12.56C12.909 27.1046 13.4102 27.6072 14.0137 27.9581C14.6171 28.309 15.3019 28.4958 16 28.5Z" fill="#FF0000"/>
</svg>
