<svg width="29" height="27" viewBox="0 0 29 27" fill="none" xmlns="http://www.w3.org/2000/svg">
<path d="M25.1757 14.9111C25.2346 14.4959 25.264 14.0668 25.264 13.61C25.264 13.1671 25.2346 12.7242 25.161 12.3089L28.1493 10.1219C28.4143 9.92814 28.4879 9.55441 28.326 9.27758L25.4996 4.68215C25.3229 4.37763 24.9549 4.28074 24.631 4.37763L21.1127 5.70643C20.3767 5.18045 19.5965 4.73751 18.728 4.40531L18.198 0.88953C18.1391 0.55733 17.8447 0.322021 17.4914 0.322021H11.8386C11.4853 0.322021 11.2056 0.55733 11.1467 0.88953L10.6168 4.40531C9.74826 4.73751 8.95333 5.19429 8.23201 5.70643L4.71373 4.37763C4.38987 4.2669 4.02185 4.37763 3.8452 4.68215L1.03352 9.27758C0.856874 9.56826 0.915757 9.92814 1.21017 10.1219L4.1985 12.3089C4.1249 12.7242 4.06602 13.1809 4.06602 13.61C4.06602 14.0391 4.09546 14.4959 4.16906 14.9111L1.18073 17.0981C0.915757 17.2919 0.842153 17.6656 1.00408 17.9425L3.83048 22.5379C4.00713 22.8424 4.37515 22.9393 4.69901 22.8424L8.21729 21.5136C8.95333 22.0396 9.73354 22.4825 10.6021 22.8147L11.132 26.3305C11.2056 26.6627 11.4853 26.898 11.8386 26.898H17.4914C17.8447 26.898 18.1391 26.6627 18.1833 26.3305L18.7132 22.8147C19.5818 22.4825 20.3767 22.0396 21.098 21.5136L24.6163 22.8424C24.9402 22.9531 25.3082 22.8424 25.4848 22.5379L28.3112 17.9425C28.4879 17.6379 28.4143 17.2919 28.1346 17.0981L25.1757 14.9111ZM14.665 18.593C11.7503 18.593 9.36551 16.3507 9.36551 13.61C9.36551 10.8694 11.7503 8.62702 14.665 8.62702C17.5797 8.62702 19.9645 10.8694 19.9645 13.61C19.9645 16.3507 17.5797 18.593 14.665 18.593Z" fill="#C6C6C6"/>
</svg>
