<svg width="37" height="34" viewBox="0 0 37 34" fill="none" xmlns="http://www.w3.org/2000/svg">
<path d="M23.2075 19.3704V20.4084C23.2075 21.0899 23.0647 21.7648 22.7873 22.3945C22.5099 23.0241 22.1033 23.5963 21.5908 24.0782C21.0782 24.5601 20.4697 24.9424 19.7999 25.2032C19.1302 25.464 18.4124 25.5983 17.6875 25.5983H14.0885C14.0715 26.1659 13.8897 26.7184 13.5627 27.1959C13.2358 27.6734 12.7763 28.0577 12.2338 28.3074C11.7813 28.5199 11.2823 28.6301 10.7765 28.6291C10.0283 28.6333 9.3006 28.3992 8.71201 27.9648L4.61617 24.9443C4.21726 24.6533 3.89442 24.2803 3.67233 23.8539C3.45024 23.4276 3.33478 22.9591 3.33478 22.4843C3.33478 22.0096 3.45024 21.5411 3.67233 21.1148C3.89442 20.6884 4.21726 20.3154 4.61617 20.0243L8.71201 17.0038C9.20549 16.6335 9.80127 16.4036 10.4291 16.3411C11.057 16.2785 11.6908 16.386 12.2558 16.6509C13.0083 16.9893 13.5877 17.5938 13.8677 18.3324H22.0704C22.2181 18.3283 22.3653 18.352 22.5031 18.4023C22.6409 18.4526 22.7665 18.5284 22.8726 18.6252C22.9786 18.722 23.0629 18.8379 23.1204 18.9659C23.178 19.0939 23.2076 19.2314 23.2075 19.3704Z" fill="#C6C6C6"/>
<path d="M33.9605 12.2499C33.9606 12.7246 33.8452 13.193 33.6233 13.6194C33.4013 14.0458 33.0786 14.4188 32.6799 14.7099L28.584 17.7304C27.9872 18.1664 27.2533 18.4037 26.4975 18.4051C25.9917 18.4061 25.4926 18.2959 25.0402 18.0833C24.2878 17.745 23.7083 17.1405 23.4283 16.4018H15.1925C14.8997 16.4018 14.6189 16.2925 14.4119 16.0978C14.2048 15.9031 14.0885 15.6391 14.0885 15.3638V14.3259C14.0885 12.9494 14.6701 11.6294 15.7053 10.6561C16.7405 9.68278 18.1445 9.13599 19.6085 9.13599H23.2075C23.221 8.55571 23.4066 7.99051 23.7436 7.50417C24.0805 7.01783 24.5554 6.62971 25.1145 6.38361C25.6736 6.13751 26.2947 6.04323 26.9077 6.1114C27.5208 6.17957 28.1014 6.40747 28.584 6.76941L32.6799 9.78991C33.0786 10.0811 33.4013 10.4541 33.6233 10.8804C33.8452 11.3068 33.9606 11.7752 33.9605 12.2499V12.2499Z" fill="#C6C6C6"/>
</svg>
