<svg width="36" height="34" viewBox="0 0 36 34" fill="none" xmlns="http://www.w3.org/2000/svg">
<path d="M18.32 17.3639C21.9784 17.3639 24.944 14.5756 24.944 11.1361C24.944 7.69651 21.9784 4.9082 18.32 4.9082C14.6617 4.9082 11.696 7.69651 11.696 11.1361C11.696 14.5756 14.6617 17.3639 18.32 17.3639Z" fill="#C6C6C6"/>
<path d="M21.632 19.3672H15.008C12.9584 19.3672 10.9928 20.1327 9.54351 21.4953C8.09423 22.8579 7.28003 24.706 7.28003 26.633C7.28003 27.4589 7.62897 28.2509 8.25009 28.8349C8.87121 29.4189 9.71363 29.7469 10.592 29.7469H26.048C26.9264 29.7469 27.7688 29.4189 28.39 28.8349C29.0111 28.2509 29.36 27.4589 29.36 26.633C29.36 24.706 28.5458 22.8579 27.0966 21.4953C25.6473 20.1327 23.6816 19.3672 21.632 19.3672Z" fill="#C6C6C6"/>
</svg>
